<?xml version="1.0" encoding="utf-8"?>
<!-- Generator: Adobe Illustrator 27.1.0, SVG Export Plug-In . SVG Version: 6.00 Build 0)  -->
<svg version="1.1" id="Ebene_1" xmlns="http://www.w3.org/2000/svg" xmlns:xlink="http://www.w3.org/1999/xlink" x="0px" y="0px"
	 viewBox="0 0 8896.5 233" style="enable-background:new 0 0 8896.5 233;" xml:space="preserve">
<style type="text/css">
	.st0{fill:none;stroke:#000000;stroke-width:11;stroke-miterlimit:5;}
</style>
<g>
	<g>
		<g>
			<path class="st0" d="M117.4,66.1c-6-21.3-15.9-29.7-36-29.7c-30.9,0-43.2,27.6-43.2,80.1c0,52.5,12.3,80.1,43.2,80.1
				c21.3,0,32.7-9.3,38.4-35.7h32.4c-7.5,44.4-30.6,66.6-69.3,66.6c-53.1,0-77.4-41.7-77.4-111c0-69.6,24.3-111,77.4-111
				c36.3,0,58.5,20.1,66.6,60.6H117.4z"/>
			<path class="st0" d="M291.1,9.4h32.1v139.8c0,52.5-21.9,78.3-69,78.3c-47.1,0-69-25.8-69-78.3V9.4h32.1v139.8
				c0,31.2,10.8,47.4,36.9,47.4c26.1,0,36.9-16.2,36.9-47.4V9.4z"/>
			<path class="st0" d="M402.4,132.4v91.2h-32.1V9.4h66.3c43.5,0,68.4,23.1,68.4,61.5c0,23.7-8.7,40.8-26.4,51.6l30,101.1h-33.9
				L448,131.8c-2.4,0.3-6.3,0.6-11.4,0.6H402.4z M432.7,102.4c28.5,0,39.9-10.8,39.9-31.5s-11.4-31.5-39.9-31.5h-30.3v63H432.7z"/>
			<path class="st0" d="M580.6,132.4v91.2h-32.1V9.4h66.3c43.5,0,68.4,23.1,68.4,61.5c0,23.7-8.7,40.8-26.4,51.6l30,101.1h-33.9
				l-26.7-91.8c-2.4,0.3-6.3,0.6-11.4,0.6H580.6z M610.9,102.4c28.5,0,39.9-10.8,39.9-31.5s-11.4-31.5-39.9-31.5h-30.3v63H610.9z"/>
			<path class="st0" d="M758.5,193.6h88.2v30H726.4V9.4h120.3v30h-88.2v58.2h64.8v30h-64.8V193.6z"/>
			<path class="st0" d="M995.5,9.4h30.9v214.2h-63L924.1,42.4h-8.4v181.2h-30.9V9.4h63l39.3,181.2h8.4V9.4z"/>
			<path class="st0" d="M1193.5,9.4v30h-51.3v184.2h-32.1V39.4h-51.3v-30H1193.5z"/>
			<path class="st0" d="M1436.8,129.1h-153v-27.9h153V129.1z"/>
			<path class="st0" d="M1576,160v63.6h-32.1V9.4h32.1v100.5l68.1-100.5h34.5l-42.3,62.4l48,151.8h-33L1617.4,118h-12.9L1576,160z"
				/>
			<path class="st0" d="M1817.2,9.4h32.1v139.8c0,52.5-21.9,78.3-69,78.3s-69-25.8-69-78.3V9.4h32.1v139.8
				c0,31.2,10.8,47.4,36.9,47.4s36.9-16.2,36.9-47.4V9.4z"/>
			<path class="st0" d="M2007.1,9.4h30.9v214.2h-63l-39.3-181.2h-8.4v181.2h-30.9V9.4h63l39.3,181.2h8.4V9.4z"/>
			<path class="st0" d="M2179.3,65.2c-5.1-20.4-15.9-28.5-37.2-28.5c-19.5,0-31.2,9.9-31.2,25.5c0,14.4,5.7,19.5,24,27.6l30.6,12.9
				c16.5,6.9,28.8,14.7,36.9,23.4c8.1,8.7,12.3,21,12.3,37.2c0,18.3-5.7,33.6-17.1,45.9c-11.4,12.3-28.8,18.3-52.5,18.3
				c-44.4,0-69.3-26.1-72.9-65.4h32.4c3.9,22.8,18,34.2,42.3,34.2c21.9,0,35.1-13.2,35.1-30.9c0-16.5-6.9-23.7-27-32.1l-30.6-12.9
				c-15.6-6.6-27.3-13.8-34.8-21.3c-7.5-7.8-11.4-19.5-11.4-34.8c0-34.5,21.9-58.8,65.1-58.8c41.7,0,63.3,22.5,68.4,59.7H2179.3z"/>
			<path class="st0" d="M2365.3,9.4v30H2314v184.2h-32.1V39.4h-51.3v-30H2365.3z"/>
			<path class="st0" d="M2573.5,9.4h32.1v139.8c0,52.5-21.9,78.3-69,78.3s-69-25.8-69-78.3V9.4h32.1v139.8
				c0,31.2,10.8,47.4,36.9,47.4s36.9-16.2,36.9-47.4V9.4z"/>
			<path class="st0" d="M2763.4,9.4h30.9v214.2h-63L2692,42.4h-8.4v181.2h-30.9V9.4h63l39.3,181.2h8.4V9.4z"/>
			<path class="st0" d="M2840.5,9.4h55.5c59.7,0,83.7,38.7,83.7,107.1c0,68.4-24,107.1-83.7,107.1h-55.5V9.4z M2872.6,39.4v154.2
				h19.8c22.8,0,37.8-7.8,45-22.5c7.5-15.3,9.6-30.6,9.6-54.6c0-24-2.1-39.6-9.6-54.3c-7.2-15.3-22.2-22.8-45-22.8H2872.6z"/>
			<path class="st0" d="M3195.4,9.4h32.1v139.8c0,52.5-21.9,78.3-69,78.3s-69-25.8-69-78.3V9.4h32.1v139.8
				c0,31.2,10.8,47.4,36.9,47.4s36.9-16.2,36.9-47.4V9.4z"/>
			<path class="st0" d="M3306.7,132.4v91.2h-32.1V9.4h66.3c43.5,0,68.4,23.1,68.4,61.5c0,23.7-8.7,40.8-26.4,51.6l30,101.1H3379
				l-26.7-91.8c-2.4,0.3-6.3,0.6-11.4,0.6H3306.7z M3337,102.4c28.5,0,39.9-10.8,39.9-31.5s-11.4-31.5-39.9-31.5h-30.3v63H3337z"/>
			<path class="st0" d="M3561.1,114.7c18.9,9.6,28.5,25.2,28.5,46.8c0,18.3-6.3,33-19.2,44.7c-12.6,11.7-30.6,17.4-54,17.4h-63.9
				V9.4h66.3c42,0,65.4,22.8,65.4,55.5c0,18.9-7.8,32.7-23.1,41.4V114.7z M3514.9,97.3c24.3,0,36.6-9.6,36.6-28.8
				c0-19.5-12.3-29.1-36.6-29.1h-30.3v57.9H3514.9z M3514.9,193.6c27.9,0,42-11.1,42-33c0-22.2-14.1-33.3-42-33.3h-30.3v66.3H3514.9
				z"/>
			<path class="st0" d="M3726.4,223.6l-12-63.6h-60.6l-11.7,63.6h-31.5l42.6-214.2h62.4l42.9,214.2H3726.4z M3676,42.4l-16.5,87.6
				h49.2l-16.2-87.6H3676z"/>
			<path class="st0" d="M3901.3,9.4h30.9v214.2h-63l-39.3-181.2h-8.4v181.2h-30.9V9.4h63l39.3,181.2h8.4V9.4z"/>
			<path class="st0" d="M4013.5,193.6h88.2v30h-120.3V9.4h120.3v30h-88.2v58.2h64.8v30h-64.8V193.6z"/>
			<path class="st0" d="M4167.4,132.4v91.2h-32.1V9.4h66.3c43.5,0,68.4,23.1,68.4,61.5c0,23.7-8.7,40.8-26.4,51.6l30,101.1h-33.9
				l-26.7-91.8c-2.4,0.3-6.3,0.6-11.4,0.6H4167.4z M4197.7,102.4c28.5,0,39.9-10.8,39.9-31.5s-11.4-31.5-39.9-31.5h-30.3v63H4197.7z
				"/>
			<path class="st0" d="M4417.3,132.4v91.2h-32.1V9.4h66.3c43.5,0,68.4,23.1,68.4,61.5c0,23.7-8.7,40.8-26.4,51.6l30,101.1h-33.9
				l-26.7-91.8c-2.4,0.3-6.3,0.6-11.4,0.6H4417.3z M4447.6,102.4c28.5,0,39.9-10.8,39.9-31.5s-11.4-31.5-39.9-31.5h-30.3v63H4447.6z
				"/>
			<path class="st0" d="M4661.8,223.6l-12-63.6h-60.6l-11.7,63.6H4546l42.6-214.2h62.4l42.9,214.2H4661.8z M4611.4,42.4l-16.5,87.6
				h49.2l-16.2-87.6H4611.4z"/>
			<path class="st0" d="M4829.8,9.4h32.1v139.8c0,52.5-21.9,78.3-69,78.3s-69-25.8-69-78.3V9.4h32.1v139.8
				c0,31.2,10.8,47.4,36.9,47.4s36.9-16.2,36.9-47.4V9.4z"/>
			<path class="st0" d="M5012.8,9.4h59.4v214.2h-30.9V42.4h-8.4l-19.5,100.2h-48.6l-19.5-100.2h-8.4v181.2H4906V9.4h60.6l18.9,99.3
				h8.4L5012.8,9.4z"/>
		</g>
	</g>
	<g>
		<path d="M5182.9,223.6v-30h48V49.9h-4.8l-35.7,27.6V40.9l40.5-31.5h32.1v184.2h43.2v30H5182.9z"/>
		<path d="M5444.5,146.2h22.2v30.6h-22.2v46.8h-32.1v-46.8h-91.8v-39L5389,9.4h55.5V146.2z M5353.6,146.2h58.8V42.4h-8.4l-50.4,95.4
			V146.2z"/>
		<path d="M5535.7,223.6h-37.2v-41.1h37.2V223.6z"/>
		<path d="M5710,129.1h-153v-27.9h153V129.1z"/>
		<path d="M5777.8,68.8h-32.7c0.6-19.5,7.2-35.1,19.8-46.2c12.9-11.4,28.2-17.1,46.2-17.1c39.6,0,63.9,21.6,63.9,62.1
			c0,9.3-2.4,18.9-6.9,28.2c-4.5,9.3-9.3,16.8-14.1,22.5c-4.8,5.7-11.7,12.9-20.4,21.9l-44.1,45v8.4h87.3v30h-131.4v-38.1l70.5-69.9
			c5.4-5.4,9.6-9.6,12.3-12.6c5.7-6.3,14.1-21.9,14.1-35.4c0-20.4-11.4-31.2-30.9-31.2C5791.3,36.4,5780.2,47.2,5777.8,68.8z"/>
		<path d="M6021.7,146.2h22.2v30.6h-22.2v46.8h-32.1v-46.8h-91.8v-39l68.4-128.4h55.5V146.2z M5930.8,146.2h58.8V42.4h-8.4
			l-50.4,95.4V146.2z"/>
		<path d="M6112.9,223.6h-37.2v-41.1h37.2V223.6z"/>
		<path d="M6212.7,5.5c24.6,0,42.6,9.9,54,29.7c11.4,19.8,17.1,46.8,17.1,81.3c0,34.5-5.7,61.5-17.1,81.3
			c-11.4,19.8-29.4,29.7-54,29.7c-24.6,0-42.6-9.9-54-29.7c-11.4-19.8-17.1-46.8-17.1-81.3c0-34.5,5.7-61.5,17.1-81.3
			C6170.1,15.4,6188.1,5.5,6212.7,5.5z M6177.6,163.3l58.2-118.5c-5.7-6.3-13.5-9.3-23.1-9.3c-29.1,0-39.3,27.9-39.3,81
			C6173.4,136,6174.9,151.6,6177.6,163.3z M6252,116.5c0-18-1.2-32.4-3.6-43.5l-57.3,116.7c6,5.1,13.2,7.5,21.6,7.5
			C6241.8,197.2,6252,169.3,6252,116.5z"/>
		<path d="M6330.9,132.7c-11.4-13.5-17.1-30.9-17.1-52.5s6-39.3,18.3-53.4c12.3-14.1,28.8-21.3,49.5-21.3c45.3,0,73.2,31.8,73.2,105
			c0,34.5-6.3,62.7-19.2,84.6c-12.9,21.6-31.5,32.4-56.4,32.4c-34.5,0-54.3-20.4-59.4-50.7h32.7c4.2,13.2,13.5,19.8,28.2,19.8
			c12.3,0,21.9-5.4,28.8-16.5c7.2-11.1,11.4-24.6,12.6-40.5h-8.4c-9.6,8.7-21.6,13.2-36.3,13.2
			C6357.9,152.8,6342.6,146.2,6330.9,132.7z M6383.1,36.4c-21.6,0-36.6,16.2-36.6,43.8s15.3,42.9,36.9,42.9
			c21.6,0,36.9-16.2,36.9-42.6C6420.3,53.2,6404.8,36.4,6383.1,36.4z"/>
		<path d="M6516.3,223.6h-37.2v-41.1h37.2V223.6z"/>
		<path d="M6581.4,68.8h-32.7c0.6-19.5,7.2-35.1,19.8-46.2c12.9-11.4,28.2-17.1,46.2-17.1c39.6,0,63.9,21.6,63.9,62.1
			c0,9.3-2.4,18.9-6.9,28.2c-4.5,9.3-9.3,16.8-14.1,22.5c-4.8,5.7-11.7,12.9-20.4,21.9l-44.1,45v8.4h87.3v30H6549v-38.1l70.5-69.9
			c5.4-5.4,9.6-9.6,12.3-12.6c5.7-6.3,14.1-21.9,14.1-35.4c0-20.4-11.4-31.2-30.9-31.2C6594.9,36.4,6583.8,47.2,6581.4,68.8z"/>
		<path d="M6780.6,5.5c24.6,0,42.6,9.9,54,29.7c11.4,19.8,17.1,46.8,17.1,81.3c0,34.5-5.7,61.5-17.1,81.3
			c-11.4,19.8-29.4,29.7-54,29.7c-24.6,0-42.6-9.9-54-29.7c-11.4-19.8-17.1-46.8-17.1-81.3c0-34.5,5.7-61.5,17.1-81.3
			C6738,15.4,6756,5.5,6780.6,5.5z M6745.5,163.3l58.2-118.5c-5.7-6.3-13.5-9.3-23.1-9.3c-29.1,0-39.3,27.9-39.3,81
			C6741.3,136,6742.8,151.6,6745.5,163.3z M6819.9,116.5c0-18-1.2-32.4-3.6-43.5L6759,189.7c6,5.1,13.2,7.5,21.6,7.5
			C6809.7,197.2,6819.9,169.3,6819.9,116.5z"/>
		<path d="M6912,68.8h-32.7c0.6-19.5,7.2-35.1,19.8-46.2c12.9-11.4,28.2-17.1,46.2-17.1c39.6,0,63.9,21.6,63.9,62.1
			c0,9.3-2.4,18.9-6.9,28.2c-4.5,9.3-9.3,16.8-14.1,22.5c-4.8,5.7-11.7,12.9-20.4,21.9l-44.1,45v8.4h87.3v30h-131.4v-38.1l70.5-69.9
			c5.4-5.4,9.6-9.6,12.3-12.6c5.7-6.3,14.1-21.9,14.1-35.4c0-20.4-11.4-31.2-30.9-31.2C6925.5,36.4,6914.4,47.2,6912,68.8z"/>
		<path d="M7065,163.6c2.1,21.9,16.5,33,36.9,33c22.5,0,35.7-13.8,35.7-39.9c0-24-16.2-38.4-43.8-38.4c-6.9,0-12.3,0.6-16.8,1.5
			V83.5l45.6-35.7v-8.4h-77.4v-30H7161v38.4l-45.6,35.7v8.4c33.6,2.1,54.9,25.8,54.9,65.1c0,21.6-6.3,38.7-19.2,51.6
			c-12.6,12.6-29.1,18.9-49.2,18.9c-41.1,0-68.1-24-69.6-63.9H7065z"/>
		<path d="M7295.4,223.6h-28.5l69.6-214.2h27.6L7295.4,223.6z"/>
		<path d="M7563.6,65.2c-5.1-20.4-15.9-28.5-37.2-28.5c-19.5,0-31.2,9.9-31.2,25.5c0,14.4,5.7,19.5,24,27.6l30.6,12.9
			c16.5,6.9,28.8,14.7,36.9,23.4c8.1,8.7,12.3,21,12.3,37.2c0,18.3-5.7,33.6-17.1,45.9c-11.4,12.3-28.8,18.3-52.5,18.3
			c-44.4,0-69.3-26.1-72.9-65.4h32.4c3.9,22.8,18,34.2,42.3,34.2c21.9,0,35.1-13.2,35.1-30.9c0-16.5-6.9-23.7-27-32.1l-30.6-12.9
			c-15.6-6.6-27.3-13.8-34.8-21.3c-7.5-7.8-11.4-19.5-11.4-34.8c0-34.5,21.9-58.8,65.1-58.8c41.7,0,63.3,22.5,68.4,59.7H7563.6z"/>
		<path d="M7750.8,9.4v30h-51.3v184.2h-32.1V39.4h-51.3v-30H7750.8z"/>
		<path d="M7887,9.4h32.1v139.8c0,52.5-21.9,78.3-69,78.3s-69-25.8-69-78.3V9.4h32.1v139.8c0,31.2,10.8,47.4,36.9,47.4
			s36.9-16.2,36.9-47.4V9.4z"/>
		<path d="M8083.8,9.4v30h-51.3v184.2h-32.1V39.4h-51.3v-30H8083.8z"/>
		<path d="M8233.8,9.4v30h-51.3v184.2h-32.1V39.4h-51.3v-30H8233.8z"/>
		<path d="M8331,5.5c36.3,0,58.5,20.1,66.6,60.6h-32.1c-6-21.3-15.9-29.7-36-29.7c-30.9,0-43.2,27.6-43.2,80.1
			c0,52.5,12.3,80.1,43.2,80.1c16.5,0,27.6-6,32.4-17.1c5.1-11.7,6.6-22.5,6.6-39.6v-3h-48.6v-30h81v24.3
			c0,64.2-23.4,96.3-69.9,96.3c-53.1,0-77.4-41.7-77.4-111C8253.6,46.9,8277.9,5.5,8331,5.5z"/>
		<path d="M8539.5,223.6l-12-63.6h-60.6l-11.7,63.6h-31.5l42.6-214.2h62.4l42.9,214.2H8539.5z M8489.1,42.4l-16.5,87.6h49.2
			l-16.2-87.6H8489.1z"/>
		<path d="M8636.1,132.4v91.2H8604V9.4h66.3c43.5,0,68.4,23.1,68.4,61.5c0,23.7-8.7,40.8-26.4,51.6l30,101.1h-33.9l-26.7-91.8
			c-2.4,0.3-6.3,0.6-11.4,0.6H8636.1z M8666.4,102.4c28.5,0,39.9-10.8,39.9-31.5s-11.4-31.5-39.9-31.5h-30.3v63H8666.4z"/>
		<path d="M8896.5,9.4v30h-51.3v184.2h-32.1V39.4h-51.3v-30H8896.5z"/>
	</g>
</g>
</svg>
