<?xml version="1.0" encoding="UTF-8"?>
<svg id="Ebene_1" data-name="Ebene 1" xmlns="http://www.w3.org/2000/svg" viewBox="0 0 3714.05 817.5">
  <defs>
    <style>
      .cls-1 {
        fill: #1d1d1b;
      }

      .cls-2 {
        fill: none;
        stroke: #1d1d1b;
        stroke-miterlimit: 5;
        stroke-width: 11px;
      }
    </style>
  </defs>
  <g>
    <g>
      <path class="cls-2" d="m117.4,66.1c-6-21.3-15.9-29.7-36-29.7-30.9,0-43.2,27.6-43.2,80.1s12.3,80.1,43.2,80.1c21.3,0,32.7-9.3,38.4-35.7h32.4c-7.5,44.4-30.6,66.6-69.3,66.6-53.1,0-77.4-41.7-77.4-111S29.8,5.5,82.9,5.5c36.3,0,58.5,20.1,66.6,60.6h-32.1Z"/>
      <path class="cls-2" d="m291.1,9.4h32.1v139.8c0,52.5-21.9,78.3-69,78.3s-69-25.8-69-78.3V9.4h32.1v139.8c0,31.2,10.8,47.4,36.9,47.4s36.9-16.2,36.9-47.4V9.4Z"/>
      <path class="cls-2" d="m402.4,132.4v91.2h-32.1V9.4h66.3c43.5,0,68.4,23.1,68.4,61.5,0,23.7-8.7,40.8-26.4,51.6l30,101.1h-33.9l-26.7-91.8c-2.4.3-6.3.6-11.4.6h-34.2Zm30.3-30c28.5,0,39.9-10.8,39.9-31.5s-11.4-31.5-39.9-31.5h-30.3v63h30.3Z"/>
      <path class="cls-2" d="m580.3,132.4v91.2h-32.1V9.4h66.3c43.5,0,68.4,23.1,68.4,61.5,0,23.7-8.7,40.8-26.4,51.6l30,101.1h-33.9l-26.7-91.8c-2.4.3-6.3.6-11.4.6h-34.2Zm30.3-30c28.5,0,39.9-10.8,39.9-31.5s-11.4-31.5-39.9-31.5h-30.3v63h30.3Z"/>
      <path class="cls-2" d="m758.2,193.6h88.2v30h-120.3V9.4h120.3v30h-88.2v58.2h64.8v30h-64.8v66Z"/>
      <path class="cls-2" d="m995.2,9.4h30.9v214.2h-63l-39.3-181.2h-8.4v181.2h-30.9V9.4h63l39.3,181.2h8.4V9.4Z"/>
      <path class="cls-2" d="m1193.19,9.4v30h-51.3v184.2h-32.1V39.4h-51.3V9.4h134.7Z"/>
      <path class="cls-2" d="m1436.49,129.1h-153v-27.9h153v27.9Z"/>
    </g>
    <g>
      <path class="cls-2" d="m47.2,454.9v63.6H15.1v-214.2h32.1v100.5l68.1-100.5h34.5l-42.3,62.4,48,151.8h-33l-33.9-105.6h-12.9l-28.5,42Z"/>
      <path class="cls-2" d="m288.4,304.3h32.1v139.8c0,52.5-21.9,78.3-69,78.3s-69-25.8-69-78.3v-139.8h32.1v139.8c0,31.2,10.8,47.4,36.9,47.4s36.9-16.2,36.9-47.4v-139.8Z"/>
      <path class="cls-2" d="m478.3,304.3h30.9v214.2h-63l-39.3-181.2h-8.4v181.2h-30.9v-214.2h63l39.3,181.2h8.4v-181.2Z"/>
      <path class="cls-2" d="m650.5,360.1c-5.1-20.4-15.9-28.5-37.2-28.5-19.5,0-31.2,9.9-31.2,25.5,0,14.4,5.7,19.5,24,27.6l30.6,12.9c16.5,6.9,28.8,14.7,36.9,23.4,8.1,8.7,12.3,21,12.3,37.2,0,18.3-5.7,33.6-17.1,45.9-11.4,12.3-28.8,18.3-52.5,18.3-44.4,0-69.3-26.1-72.9-65.4h32.4c3.9,22.8,18,34.2,42.3,34.2,21.9,0,35.1-13.2,35.1-30.9,0-16.5-6.9-23.7-27-32.1l-30.6-12.9c-15.6-6.6-27.3-13.8-34.8-21.3-7.5-7.8-11.4-19.5-11.4-34.8,0-34.5,21.9-58.8,65.1-58.8s63.3,22.5,68.4,59.7h-32.4Z"/>
      <path class="cls-2" d="m836.5,304.3v30h-51.3v184.2h-32.1v-184.2h-51.3v-30h134.7Z"/>
      <path class="cls-2" d="m1044.69,304.3h32.1v139.8c0,52.5-21.9,78.3-69,78.3s-69-25.8-69-78.3v-139.8h32.1v139.8c0,31.2,10.8,47.4,36.9,47.4s36.9-16.2,36.9-47.4v-139.8Z"/>
      <path class="cls-2" d="m1234.89,304.3h30.9v214.2h-63l-39.3-181.2h-8.4v181.2h-30.9v-214.2h63l39.3,181.2h8.4v-181.2Z"/>
      <path class="cls-2" d="m1311.99,304.3h55.5c59.7,0,83.7,38.7,83.7,107.1s-24,107.1-83.7,107.1h-55.5v-214.2Zm32.1,30v154.2h19.8c22.8,0,37.8-7.8,45-22.5,7.5-15.3,9.6-30.6,9.6-54.6s-2.1-39.6-9.6-54.3c-7.2-15.3-22.2-22.8-45-22.8h-19.8Z"/>
      <path class="cls-2" d="m1666.89,304.3h32.1v139.8c0,52.5-21.9,78.3-69,78.3s-69-25.8-69-78.3v-139.8h32.1v139.8c0,31.2,10.8,47.4,36.9,47.4s36.9-16.2,36.9-47.4v-139.8Z"/>
      <path class="cls-2" d="m1778.18,427.3v91.2h-32.1v-214.2h66.3c43.5,0,68.4,23.1,68.4,61.5,0,23.7-8.7,40.8-26.4,51.6l30,101.1h-33.9l-26.7-91.8c-2.4.3-6.3.6-11.4.6h-34.2Zm30.3-30c28.5,0,39.9-10.8,39.9-31.5s-11.4-31.5-39.9-31.5h-30.3v63h30.3Z"/>
      <path class="cls-2" d="m2032.58,409.6c18.9,9.6,28.5,25.2,28.5,46.8,0,18.3-6.3,33-19.2,44.7-12.6,11.7-30.6,17.4-54,17.4h-63.9v-214.2h66.3c42,0,65.4,22.8,65.4,55.5,0,18.9-7.8,32.7-23.1,41.4v8.4Zm-46.2-17.4c24.3,0,36.6-9.6,36.6-28.8s-12.3-29.1-36.6-29.1h-30.3v57.9h30.3Zm0,96.3c27.9,0,42-11.1,42-33s-14.1-33.3-42-33.3h-30.3v66.3h30.3Z"/>
      <path class="cls-2" d="m2197.88,518.5l-12-63.6h-60.6l-11.7,63.6h-31.5l42.6-214.2h62.4l42.9,214.2h-32.1Zm-50.4-181.2l-16.5,87.6h49.2l-16.2-87.6h-16.5Z"/>
      <path class="cls-2" d="m2372.78,304.3h30.9v214.2h-63l-39.3-181.2h-8.4v181.2h-30.9v-214.2h63l39.3,181.2h8.4v-181.2Z"/>
      <path class="cls-2" d="m2484.98,488.5h88.2v30h-120.3v-214.2h120.3v30h-88.2v58.2h64.8v30h-64.8v66Z"/>
      <path class="cls-2" d="m2638.88,427.3v91.2h-32.1v-214.2h66.3c43.5,0,68.4,23.1,68.4,61.5,0,23.7-8.7,40.8-26.4,51.6l30,101.1h-33.9l-26.7-91.8c-2.4.3-6.3.6-11.4.6h-34.2Zm30.3-30c28.5,0,39.9-10.8,39.9-31.5s-11.4-31.5-39.9-31.5h-30.3v63h30.3Z"/>
      <path class="cls-2" d="m2888.78,427.3v91.2h-32.1v-214.2h66.3c43.5,0,68.4,23.1,68.4,61.5,0,23.7-8.7,40.8-26.4,51.6l30,101.1h-33.9l-26.7-91.8c-2.4.3-6.3.6-11.4.6h-34.2Zm30.3-30c28.5,0,39.9-10.8,39.9-31.5s-11.4-31.5-39.9-31.5h-30.3v63h30.3Z"/>
      <path class="cls-2" d="m3133.27,518.5l-12-63.6h-60.6l-11.7,63.6h-31.5l42.6-214.2h62.4l42.9,214.2h-32.1Zm-50.4-181.2l-16.5,87.6h49.2l-16.2-87.6h-16.5Z"/>
      <path class="cls-2" d="m3301.57,304.3h32.1v139.8c0,52.5-21.9,78.3-69,78.3s-69-25.8-69-78.3v-139.8h32.1v139.8c0,31.2,10.8,47.4,36.9,47.4s36.9-16.2,36.9-47.4v-139.8Z"/>
      <path class="cls-2" d="m3484.57,304.3h59.4v214.2h-30.9v-181.2h-8.4l-19.5,100.2h-48.6l-19.5-100.2h-8.4v181.2h-30.9v-214.2h60.6l18.9,99.3h8.4l18.9-99.3Z"/>
    </g>
  </g>
  <g>
    <path class="cls-1" d="m6.4,813.6v-30h48v-143.7h-4.8l-35.7,27.6v-36.6l40.5-31.5h32.1v184.2h43.2v30H6.4Z"/>
    <path class="cls-1" d="m268,736.2h22.2v30.6h-22.2v46.8h-32.1v-46.8h-91.8v-39l68.4-128.4h55.5v136.8Zm-90.9,0h58.8v-103.8h-8.4l-50.4,95.4v8.4Z"/>
    <path class="cls-1" d="m358.9,813.6h-37.2v-41.1h37.2v41.1Z"/>
    <path class="cls-1" d="m533.2,719.1h-153v-27.9h153v27.9Z"/>
    <path class="cls-1" d="m600.69,658.8h-32.7c.6-19.5,7.2-35.1,19.8-46.2,12.9-11.4,28.2-17.1,46.2-17.1,39.6,0,63.9,21.6,63.9,62.1,0,9.3-2.4,18.9-6.9,28.2-4.5,9.3-9.3,16.8-14.1,22.5-4.8,5.7-11.7,12.9-20.4,21.9l-44.1,45v8.4h87.3v30h-131.4v-38.1l70.5-69.9c5.4-5.4,9.6-9.6,12.3-12.6,5.7-6.3,14.1-21.9,14.1-35.4,0-20.4-11.4-31.2-30.9-31.2s-31.2,10.8-33.6,32.4Z"/>
    <path class="cls-1" d="m844.59,736.2h22.2v30.6h-22.2v46.8h-32.1v-46.8h-91.8v-39l68.4-128.4h55.5v136.8Zm-90.9,0h58.8v-103.8h-8.4l-50.4,95.4v8.4Z"/>
    <path class="cls-1" d="m935.79,813.6h-37.2v-41.1h37.2v41.1Z"/>
    <path class="cls-1" d="m1035.69,595.5c24.6,0,42.6,9.9,54,29.7,11.4,19.8,17.1,46.8,17.1,81.3s-5.7,61.5-17.1,81.3c-11.4,19.8-29.4,29.7-54,29.7s-42.6-9.9-54-29.7c-11.4-19.8-17.1-46.8-17.1-81.3s5.7-61.5,17.1-81.3c11.4-19.8,29.4-29.7,54-29.7Zm-35.1,157.8l58.2-118.5c-5.7-6.3-13.5-9.3-23.1-9.3-29.1,0-39.3,27.9-39.3,81,0,19.5,1.5,35.1,4.2,46.8Zm74.4-46.8c0-18-1.2-32.4-3.6-43.5l-57.3,116.7c6,5.1,13.2,7.5,21.6,7.5,29.1,0,39.3-27.9,39.3-80.7Z"/>
    <path class="cls-1" d="m1153.89,722.7c-11.4-13.5-17.1-30.9-17.1-52.5s6-39.3,18.3-53.4c12.3-14.1,28.8-21.3,49.5-21.3,45.3,0,73.2,31.8,73.2,105,0,34.5-6.3,62.7-19.2,84.6-12.9,21.6-31.5,32.4-56.4,32.4-34.5,0-54.3-20.4-59.4-50.7h32.7c4.2,13.2,13.5,19.8,28.2,19.8,12.3,0,21.9-5.4,28.8-16.5,7.2-11.1,11.4-24.6,12.6-40.5h-8.4c-9.6,8.7-21.6,13.2-36.3,13.2-19.5,0-34.8-6.6-46.5-20.1Zm52.2-96.3c-21.6,0-36.6,16.2-36.6,43.8s15.3,42.9,36.9,42.9,36.9-16.2,36.9-42.6-15.6-44.1-37.2-44.1Z"/>
    <path class="cls-1" d="m1339.28,813.6h-37.2v-41.1h37.2v41.1Z"/>
    <path class="cls-1" d="m1404.38,658.8h-32.7c.6-19.5,7.2-35.1,19.8-46.2,12.9-11.4,28.2-17.1,46.2-17.1,39.6,0,63.9,21.6,63.9,62.1,0,9.3-2.4,18.9-6.9,28.2-4.5,9.3-9.3,16.8-14.1,22.5-4.8,5.7-11.7,12.9-20.4,21.9l-44.1,45v8.4h87.3v30h-131.4v-38.1l70.5-69.9c5.4-5.4,9.6-9.6,12.3-12.6,5.7-6.3,14.1-21.9,14.1-35.4,0-20.4-11.4-31.2-30.9-31.2s-31.2,10.8-33.6,32.4Z"/>
    <path class="cls-1" d="m1603.58,595.5c24.6,0,42.6,9.9,54,29.7,11.4,19.8,17.1,46.8,17.1,81.3s-5.7,61.5-17.1,81.3c-11.4,19.8-29.4,29.7-54,29.7s-42.6-9.9-54-29.7c-11.4-19.8-17.1-46.8-17.1-81.3s5.7-61.5,17.1-81.3c11.4-19.8,29.4-29.7,54-29.7Zm-35.1,157.8l58.2-118.5c-5.7-6.3-13.5-9.3-23.1-9.3-29.1,0-39.3,27.9-39.3,81,0,19.5,1.5,35.1,4.2,46.8Zm74.4-46.8c0-18-1.2-32.4-3.6-43.5l-57.3,116.7c6,5.1,13.2,7.5,21.6,7.5,29.1,0,39.3-27.9,39.3-80.7Z"/>
    <path class="cls-1" d="m1734.98,658.8h-32.7c.6-19.5,7.2-35.1,19.8-46.2,12.9-11.4,28.2-17.1,46.2-17.1,39.6,0,63.9,21.6,63.9,62.1,0,9.3-2.4,18.9-6.9,28.2-4.5,9.3-9.3,16.8-14.1,22.5-4.8,5.7-11.7,12.9-20.4,21.9l-44.1,45v8.4h87.3v30h-131.4v-38.1l70.5-69.9c5.4-5.4,9.6-9.6,12.3-12.6,5.7-6.3,14.1-21.9,14.1-35.4,0-20.4-11.4-31.2-30.9-31.2s-31.2,10.8-33.6,32.4Z"/>
    <path class="cls-1" d="m1887.97,753.6c2.1,21.9,16.5,33,36.9,33,22.5,0,35.7-13.8,35.7-39.9,0-24-16.2-38.4-43.8-38.4-6.9,0-12.3.6-16.8,1.5v-36.3l45.6-35.7v-8.4h-77.4v-30h115.8v38.4l-45.6,35.7v8.4c33.6,2.1,54.9,25.8,54.9,65.1,0,21.6-6.3,38.7-19.2,51.6s-29.1,18.9-49.2,18.9c-41.1,0-68.1-24-69.6-63.9h32.7Z"/>
    <path class="cls-1" d="m2115.97,813.6h-28.5l69.6-214.2h27.6l-68.7,214.2Z"/>
    <path class="cls-1" d="m2381.47,655.2c-5.1-20.4-15.9-28.5-37.2-28.5-19.5,0-31.2,9.9-31.2,25.5,0,14.4,5.7,19.5,24,27.6l30.6,12.9c16.5,6.9,28.8,14.7,36.9,23.4,8.1,8.7,12.3,21,12.3,37.2,0,18.3-5.7,33.6-17.1,45.9-11.4,12.3-28.8,18.3-52.5,18.3-44.4,0-69.3-26.1-72.9-65.4h32.4c3.9,22.8,18,34.2,42.3,34.2,21.9,0,35.1-13.2,35.1-30.9,0-16.5-6.9-23.7-27-32.1l-30.6-12.9c-15.6-6.6-27.3-13.8-34.8-21.3-7.5-7.8-11.4-19.5-11.4-34.8,0-34.5,21.9-58.8,65.1-58.8s63.3,22.5,68.4,59.7h-32.4Z"/>
    <path class="cls-1" d="m2568.96,599.4v30h-51.3v184.2h-32.1v-184.2h-51.3v-30h134.7Z"/>
    <path class="cls-1" d="m2705.16,599.4h32.1v139.8c0,52.5-21.9,78.3-69,78.3s-69-25.8-69-78.3v-139.8h32.1v139.8c0,31.2,10.8,47.4,36.9,47.4s36.9-16.2,36.9-47.4v-139.8Z"/>
    <path class="cls-1" d="m2901.96,599.4v30h-51.3v184.2h-32.1v-184.2h-51.3v-30h134.7Z"/>
    <path class="cls-1" d="m3051.96,599.4v30h-51.3v184.2h-32.1v-184.2h-51.3v-30h134.7Z"/>
    <path class="cls-1" d="m3149.15,595.5c36.3,0,58.5,20.1,66.6,60.6h-32.1c-6-21.3-15.9-29.7-36-29.7-30.9,0-43.2,27.6-43.2,80.1s12.3,80.1,43.2,80.1c16.5,0,27.6-6,32.4-17.1,5.1-11.7,6.6-22.5,6.6-39.6v-3h-48.6v-30h81v24.3c0,64.2-23.4,96.3-69.9,96.3-53.1,0-77.4-41.7-77.4-111s24.3-111,77.4-111Z"/>
    <path class="cls-1" d="m3357.35,813.6l-12-63.6h-60.6l-11.7,63.6h-31.5l42.6-214.2h62.4l42.9,214.2h-32.1Zm-50.4-181.2l-16.5,87.6h49.2l-16.2-87.6h-16.5Z"/>
    <path class="cls-1" d="m3453.65,722.4v91.2h-32.1v-214.2h66.3c43.5,0,68.4,23.1,68.4,61.5,0,23.7-8.7,40.8-26.4,51.6l30,101.1h-33.9l-26.7-91.8c-2.4.3-6.3.6-11.4.6h-34.2Zm30.3-30c28.5,0,39.9-10.8,39.9-31.5s-11.4-31.5-39.9-31.5h-30.3v63h30.3Z"/>
    <path class="cls-1" d="m3714.05,599.4v30h-51.3v184.2h-32.1v-184.2h-51.3v-30h134.7Z"/>
  </g>
</svg>